<svg width="72" height="72" viewBox="0 0 72 72" fill="none" xmlns="http://www.w3.org/2000/svg">
<rect width="72" height="72" rx="24" fill="#007F98" fill-opacity="0.96"/>
<path d="M37.1223 38.8446L42.0009 45.9999M34.8795 38.8446L30.0009 45.9999M38.0009 37.2C38.0009 38.3045 37.1055 39.2 36.0009 39.2C34.8963 39.2 34.0009 38.3045 34.0009 37.2C34.0009 36.0954 34.8963 35.2 36.0009 35.2C37.1055 35.2 38.0009 36.0954 38.0009 37.2ZM41.1494 28.5322L29.3651 31.6898C29.0946 31.7623 28.9594 31.7986 28.8702 31.8789C28.7917 31.9495 28.7376 32.0432 28.7157 32.1465C28.6907 32.2639 28.7269 32.3992 28.7994 32.6696L29.6794 35.9538C29.7519 36.2243 29.7881 36.3595 29.8684 36.4487C29.9391 36.5272 30.0328 36.5813 30.1361 36.6032C30.2535 36.6282 30.3887 36.5919 30.6592 36.5195L42.4435 33.3619L41.1494 28.5322ZM45.7933 33.4996C44.7113 33.7895 44.1704 33.9344 43.7007 33.8346C43.2876 33.7468 42.9129 33.5304 42.6302 33.2166C42.309 32.8597 42.164 32.3188 41.8741 31.2368L41.7188 30.6573C41.4289 29.5753 41.284 29.0344 41.3838 28.5647C41.4716 28.1516 41.6879 27.7769 42.0018 27.4942C42.3586 27.173 42.8996 27.028 43.9815 26.7381C44.252 26.6656 44.3873 26.6294 44.5047 26.6543C44.608 26.6763 44.7017 26.7304 44.7723 26.8089C44.8526 26.8981 44.8889 27.0333 44.9613 27.3038L46.359 32.5198C46.4314 32.7903 46.4677 32.9255 46.4427 33.0429C46.4208 33.1462 46.3667 33.2399 46.2882 33.3105C46.199 33.3909 46.0638 33.4271 45.7933 33.4996ZM27.5026 36.33L28.8549 35.9677C29.1254 35.8952 29.2606 35.8589 29.3498 35.7786C29.4283 35.708 29.4824 35.6143 29.5043 35.511C29.5293 35.3936 29.4931 35.2583 29.4206 34.9879L29.0582 33.6356C28.9858 33.3651 28.9495 33.2298 28.8692 33.1406C28.7986 33.0622 28.7049 33.0081 28.6016 32.9861C28.4842 32.9612 28.3489 32.9974 28.0784 33.0699L26.7261 33.4322C26.4557 33.5047 26.3204 33.5409 26.2312 33.6213C26.1527 33.6919 26.0987 33.7856 26.0767 33.8889C26.0517 34.0063 26.088 34.1415 26.1605 34.412L26.5228 35.7643C26.5953 36.0348 26.6315 36.17 26.7118 36.2592C26.7825 36.3377 26.8762 36.3918 26.9795 36.4138C27.0969 36.4387 27.2321 36.4025 27.5026 36.33Z" stroke="#EDEEF0" stroke-opacity="0.96" stroke-width="2" stroke-linecap="round" stroke-linejoin="round"/>
</svg>
